<svg width="1920" height="520" viewBox="0 0 1920 520" fill="none" xmlns="http://www.w3.org/2000/svg">
<g clip-path="url(#clip0_492_18515)">
<rect width="1920" height="520" fill="#5E72E4"/>
<path d="M729.733 -51.5462C787.001 -111.54 864.66 -145.233 945.623 -145.233C1053.5 -145.233 1148.33 -86.6168 1202.65 1.91867L1085.44 124.711C1065.6 63.8539 1010.52 20.0327 945.623 20.0327C906.43 20.0327 868.855 36.3434 841.16 65.3561L653.503 261.945C625.81 290.956 610.262 330.291 610.262 371.294C610.262 456.663 676.336 525.967 757.966 525.967C797.159 525.967 834.733 509.657 862.428 480.644L1370.44 -51.5462C1427.71 -111.54 1505.36 -145.233 1586.33 -145.233C1694.2 -145.233 1789.03 -86.6185 1843.36 1.91557L1726.14 124.707C1706.3 63.8519 1651.23 20.0327 1586.33 20.0327C1547.13 20.0327 1509.56 36.3434 1481.86 65.3561L1103.66 461.563L973.855 597.545C916.587 657.539 838.929 691.233 757.966 691.233C589.383 691.233 452.621 548.049 452.621 371.294C452.621 286.423 484.805 205.04 542.075 145.044L729.733 -51.5462ZM1398.67 525.967C1437.86 525.967 1475.44 509.657 1503.13 480.644L2011.14 -51.5462C2068.41 -111.54 2146.07 -145.233 2227.03 -145.233C2395.62 -145.233 2532.38 -2.04771 2532.38 174.706C2532.38 259.577 2500.19 340.96 2442.92 400.956L2255.27 597.545C2198 657.539 2120.34 691.233 2039.38 691.233C1931.51 691.233 1836.68 632.622 1782.35 544.092L1899.56 421.301C1919.4 482.151 1974.48 525.967 2039.38 525.967C2078.57 525.967 2116.14 509.657 2143.84 480.644L2331.5 284.055C2359.19 255.044 2374.74 215.709 2374.74 174.706C2374.74 89.3379 2308.66 20.0327 2227.03 20.0327C2187.84 20.0327 2150.27 36.3434 2122.57 65.3561L1614.56 597.545C1557.29 657.539 1479.63 691.233 1398.67 691.233C1290.81 691.233 1195.98 632.625 1141.65 544.103L1258.86 421.315C1278.71 482.16 1333.78 525.967 1398.67 525.967Z" stroke="url(#paint0_linear_492_18515)" stroke-width="2.53474"/>
<path d="M1403.15 148.767C1403.13 148.068 1402.55 147.514 1401.85 147.53L1390.45 147.801C1389.75 147.818 1389.19 148.398 1389.21 149.098C1389.23 149.798 1389.81 150.352 1390.51 150.335L1400.64 150.094L1400.88 160.231C1400.9 160.93 1401.48 161.484 1402.18 161.468C1402.88 161.451 1403.44 160.87 1403.42 160.17L1403.15 148.767ZM985.833 586.915L1402.8 149.672L1400.96 147.923L983.998 585.166L985.833 586.915Z" fill="url(#paint1_linear_492_18515)"/>
<path d="M1040.68 294.514C1040.66 293.814 1040.08 293.261 1039.38 293.278L1027.98 293.565C1027.28 293.582 1026.73 294.164 1026.74 294.863C1026.76 295.563 1027.34 296.116 1028.04 296.098L1038.18 295.844L1038.43 305.98C1038.45 306.68 1039.03 307.233 1039.73 307.215C1040.43 307.198 1040.98 306.616 1040.97 305.916L1040.68 294.514ZM867.97 476.653L1040.33 295.419L1038.5 293.672L866.133 474.906L867.97 476.653Z" fill="url(#paint2_linear_492_18515)"/>
<path d="M1507.07 475.811C1507.09 476.511 1507.67 477.064 1508.37 477.046L1519.78 476.76C1520.47 476.743 1521.03 476.161 1521.01 475.462C1520.99 474.762 1520.41 474.209 1519.71 474.226L1509.58 474.481L1509.32 464.345C1509.3 463.645 1508.72 463.092 1508.02 463.11C1507.32 463.127 1506.77 463.709 1506.79 464.409L1507.07 475.811ZM1681.62 295.419C1682.1 294.912 1682.08 294.109 1681.58 293.627C1681.07 293.145 1680.27 293.165 1679.78 293.672L1681.62 295.419ZM1509.26 476.653L1681.62 295.419L1679.78 293.672L1507.42 474.906L1509.26 476.653Z" fill="url(#paint3_linear_492_18515)"/>
</g>
<defs>
<linearGradient id="paint0_linear_492_18515" x1="1739" y1="692.5" x2="451.354" y2="692.5" gradientUnits="userSpaceOnUse">
<stop stop-color="#525CD9"/>
<stop offset="1" stop-color="#525CD9" stop-opacity="0.12"/>
</linearGradient>
<linearGradient id="paint1_linear_492_18515" x1="1402.24" y1="149.142" x2="985.277" y2="586.386" gradientUnits="userSpaceOnUse">
<stop stop-color="#8AA0EF"/>
<stop offset="1" stop-color="#8AA0EF" stop-opacity="0"/>
</linearGradient>
<linearGradient id="paint2_linear_492_18515" x1="1039.78" y1="294.89" x2="867.414" y2="476.124" gradientUnits="userSpaceOnUse">
<stop stop-color="#8AA0EF"/>
<stop offset="1" stop-color="#8AA0EF" stop-opacity="0"/>
</linearGradient>
<linearGradient id="paint3_linear_492_18515" x1="1681.07" y1="294.89" x2="1508.7" y2="476.124" gradientUnits="userSpaceOnUse">
<stop stop-color="#383F9B" stop-opacity="0"/>
<stop offset="1" stop-color="#383F9B"/>
</linearGradient>
<clipPath id="clip0_492_18515">
<rect width="1920" height="520" fill="white"/>
</clipPath>
</defs>
</svg>
