<svg width="255" height="32" viewBox="0 0 255 32" fill="none" xmlns="http://www.w3.org/2000/svg">
<path fill-rule="evenodd" clip-rule="evenodd" d="M18.8581 0C15.7555 0 12.78 1.29072 10.5862 3.58822L3.42635 11.0863C1.23249 13.3838 0 16.4998 0 19.749C0 26.5151 5.23751 32 11.6983 32C14.8009 32 17.7764 30.7092 19.9702 28.4117L24.9227 23.2253L39.3526 8.11371C40.4004 7.01644 41.8215 6.4 43.3032 6.4C45.784 6.4 47.8872 8.09324 48.6164 10.4363L53.1704 5.66716C51.0929 2.25956 47.45 0 43.3032 0C40.2006 0 37.2252 1.29072 35.0313 3.58822L15.649 23.8863C14.6012 24.9836 13.1801 25.6 11.6983 25.6C8.61267 25.6 6.11128 22.9805 6.11128 19.749C6.11128 18.1972 6.69991 16.709 7.74768 15.6117L14.9075 8.11371C15.9552 7.01644 17.3763 6.4 18.8581 6.4C21.339 6.4 23.4421 8.09331 24.1712 10.4365L28.7254 5.66727C26.6478 2.25963 23.005 0 18.8581 0ZM197.548 22.7556H194.878V12.9677H197.548V22.7556ZM196.217 9.13312C196.614 9.13312 196.955 9.2265 197.241 9.41327C197.527 9.5942 197.67 9.93564 197.67 10.4376C197.67 10.9337 197.527 11.278 197.241 11.4706C196.955 11.6574 196.614 11.7508 196.217 11.7508C195.814 11.7508 195.47 11.6574 195.184 11.4706C194.904 11.278 194.764 10.9337 194.764 10.4376C194.764 9.93564 194.904 9.5942 195.184 9.41327C195.47 9.2265 195.814 9.13312 196.217 9.13312ZM99.0128 11.0241C98.2541 10.3121 97.0488 9.95607 95.3971 9.95607H91.3086V22.7556H94.0226V18.2031H95.187C96.1208 18.2031 96.9058 18.0893 97.542 17.8616C98.1782 17.6282 98.686 17.313 99.0653 16.9161C99.4505 16.5192 99.7278 16.0669 99.897 15.5591C100.066 15.0455 100.151 14.5086 100.151 13.9482C100.151 12.7051 99.7715 11.7304 99.0128 11.0241ZM94.0226 12.1798H95.257C95.9924 12.1798 96.5352 12.3344 96.8854 12.6438C97.2356 12.9473 97.4107 13.4142 97.4107 14.0445C97.4107 14.494 97.3085 14.8617 97.1043 15.1476C96.9 15.4336 96.6111 15.6438 96.2375 15.778C95.864 15.9122 95.4233 15.9794 94.9156 15.9794H94.0226V12.1798ZM108.284 12.8101C108.109 12.7926 107.954 12.7839 107.82 12.7839C107.388 12.7839 106.985 12.8685 106.612 13.0377C106.244 13.2012 105.914 13.423 105.623 13.7031C105.337 13.9774 105.097 14.2809 104.905 14.6136H104.773L104.379 12.9677H102.357V22.7556H105.027V17.7741C105.027 17.313 105.1 16.9249 105.246 16.6097C105.398 16.2887 105.602 16.0319 105.859 15.8393C106.116 15.6408 106.405 15.4978 106.726 15.4103C107.053 15.3227 107.388 15.279 107.733 15.279C107.849 15.279 107.986 15.2877 108.144 15.3052C108.307 15.3169 108.433 15.3373 108.52 15.3665L108.722 12.8627C108.611 12.8393 108.465 12.8218 108.284 12.8101ZM119.394 17.8441C119.394 18.6612 119.283 19.385 119.061 20.0153C118.845 20.6456 118.527 21.1797 118.107 21.6174C117.693 22.0493 117.191 22.3762 116.601 22.598C116.017 22.8198 115.358 22.9306 114.623 22.9306C113.934 22.9306 113.301 22.8198 112.723 22.598C112.151 22.3762 111.652 22.0493 111.226 21.6174C110.805 21.1797 110.479 20.6456 110.245 20.0153C110.018 19.385 109.904 18.6612 109.904 17.8441C109.904 16.7585 110.096 15.8393 110.482 15.0864C110.867 14.3335 111.415 13.7615 112.127 13.3704C112.84 12.9794 113.689 12.7839 114.675 12.7839C115.591 12.7839 116.403 12.9794 117.109 13.3704C117.821 13.7615 118.378 14.3335 118.781 15.0864C119.19 15.8393 119.394 16.7585 119.394 17.8441ZM112.626 17.8441C112.626 18.4861 112.697 19.026 112.837 19.4638C112.977 19.9015 113.196 20.2313 113.493 20.453C113.791 20.6748 114.179 20.7857 114.658 20.7857C115.13 20.7857 115.513 20.6748 115.804 20.453C116.102 20.2313 116.318 19.9015 116.452 19.4638C116.592 19.026 116.662 18.4861 116.662 17.8441C116.662 17.1963 116.592 16.6593 116.452 16.2332C116.318 15.8013 116.102 15.4774 115.804 15.2615C115.507 15.0455 115.119 14.9375 114.64 14.9375C113.934 14.9375 113.42 15.1797 113.099 15.6642C112.784 16.1486 112.626 16.8753 112.626 17.8441ZM123.097 22.4054C123.78 22.7556 124.606 22.9306 125.575 22.9306C126.258 22.9306 126.821 22.8723 127.264 22.7556C127.714 22.6447 128.143 22.4608 128.551 22.204V19.919C128.143 20.1875 127.723 20.3976 127.291 20.5493C126.859 20.6953 126.366 20.7682 125.811 20.7682C125.368 20.7682 124.991 20.6661 124.682 20.4618C124.372 20.2517 124.136 19.9336 123.973 19.5075C123.809 19.0815 123.728 18.5445 123.728 17.8966C123.728 17.2371 123.803 16.6885 123.955 16.2507C124.107 15.813 124.337 15.4862 124.647 15.2702C124.956 15.0484 125.344 14.9375 125.811 14.9375C126.173 14.9375 126.535 14.993 126.897 15.1039C127.259 15.2089 127.65 15.3461 128.07 15.5154L128.858 13.4492C128.49 13.2683 128.058 13.1136 127.562 12.9852C127.072 12.851 126.488 12.7839 125.811 12.7839C124.86 12.7839 124.022 12.9619 123.299 13.3179C122.581 13.6739 122.017 14.2313 121.609 14.9901C121.206 15.743 121.005 16.7177 121.005 17.9142C121.005 19.0698 121.183 20.0182 121.539 20.7595C121.895 21.5007 122.414 22.0493 123.097 22.4054ZM134.864 12.7839C135.768 12.7839 136.547 12.959 137.201 13.3091C137.855 13.6535 138.36 14.1554 138.716 14.815C139.072 15.4745 139.25 16.2799 139.25 17.2313V18.527H132.938C132.967 19.2799 133.191 19.8723 133.612 20.3042C134.038 20.7303 134.627 20.9433 135.38 20.9433C136.005 20.9433 136.577 20.8791 137.096 20.7507C137.616 20.6223 138.15 20.4297 138.698 20.1729V22.239C138.214 22.4783 137.706 22.6534 137.175 22.7643C136.65 22.8752 136.01 22.9306 135.258 22.9306C134.277 22.9306 133.407 22.7497 132.649 22.3878C131.896 22.026 131.303 21.4744 130.871 20.7332C130.445 19.992 130.232 19.0581 130.232 17.9317C130.232 16.7877 130.425 15.8364 130.81 15.0776C131.201 14.313 131.744 13.741 132.439 13.3617C133.133 12.9765 133.941 12.7839 134.864 12.7839ZM134.881 14.6836C134.362 14.6836 133.93 14.85 133.585 15.1827C133.247 15.5154 133.051 16.0377 132.999 16.7498H136.746C136.74 16.3529 136.667 15.9998 136.527 15.6904C136.393 15.3811 136.188 15.136 135.914 14.955C135.646 14.7741 135.301 14.6836 134.881 14.6836ZM147.777 21.5386C148.092 21.0776 148.25 20.5143 148.25 19.849C148.25 19.2711 148.139 18.8013 147.917 18.4394C147.695 18.0717 147.38 17.7653 146.971 17.5202C146.563 17.2692 146.081 17.0299 145.527 16.8023C144.955 16.5688 144.52 16.3792 144.222 16.2332C143.931 16.0815 143.732 15.9443 143.627 15.8218C143.528 15.6992 143.478 15.5591 143.478 15.4015C143.478 15.1856 143.578 15.0251 143.776 14.92C143.974 14.815 144.269 14.7624 144.66 14.7624C145.104 14.7624 145.539 14.8296 145.965 14.9638C146.397 15.098 146.855 15.2702 147.339 15.4803L148.145 13.5543C147.561 13.2858 146.992 13.0903 146.437 12.9677C145.889 12.8451 145.311 12.7839 144.704 12.7839C143.525 12.7839 142.582 13.0144 141.876 13.4755C141.176 13.9307 140.826 14.6107 140.826 15.5154C140.826 16.0698 140.919 16.528 141.106 16.8898C141.298 17.2459 141.59 17.5552 141.981 17.8179C142.378 18.0805 142.883 18.3402 143.496 18.597C144.132 18.8655 144.599 19.0844 144.897 19.2536C145.194 19.4171 145.387 19.5659 145.474 19.7001C145.568 19.8285 145.614 19.9744 145.614 20.1379C145.614 20.3888 145.501 20.5931 145.273 20.7507C145.051 20.9025 144.681 20.9783 144.161 20.9783C143.7 20.9783 143.163 20.9025 142.55 20.7507C141.943 20.5931 141.374 20.3947 140.843 20.1554V22.3616C141.339 22.5659 141.829 22.7118 142.314 22.7993C142.804 22.8869 143.391 22.9306 144.074 22.9306C144.996 22.9306 145.766 22.8139 146.385 22.5805C147.004 22.3412 147.468 21.9939 147.777 21.5386ZM157.162 19.849C157.162 20.5143 157.004 21.0776 156.689 21.5386C156.38 21.9939 155.916 22.3412 155.297 22.5805C154.679 22.8139 153.908 22.9306 152.986 22.9306C152.303 22.9306 151.717 22.8869 151.226 22.7993C150.742 22.7118 150.252 22.5659 149.755 22.3616V20.1554C150.287 20.3947 150.856 20.5931 151.463 20.7507C152.076 20.9025 152.612 20.9783 153.074 20.9783C153.593 20.9783 153.964 20.9025 154.185 20.7507C154.413 20.5931 154.527 20.3888 154.527 20.1379C154.527 19.9744 154.48 19.8285 154.387 19.7001C154.299 19.5659 154.107 19.4171 153.809 19.2536C153.511 19.0844 153.044 18.8655 152.408 18.597C151.795 18.3402 151.29 18.0805 150.894 17.8179C150.503 17.5552 150.211 17.2459 150.018 16.8898C149.831 16.528 149.738 16.0698 149.738 15.5154C149.738 14.6107 150.088 13.9307 150.789 13.4755C151.495 13.0144 152.437 12.7839 153.616 12.7839C154.223 12.7839 154.801 12.8451 155.35 12.9677C155.904 13.0903 156.473 13.2858 157.057 13.5543L156.252 15.4803C155.767 15.2702 155.309 15.098 154.877 14.9638C154.451 14.8296 154.016 14.7624 153.573 14.7624C153.182 14.7624 152.887 14.815 152.688 14.92C152.49 15.0251 152.391 15.1856 152.391 15.4015C152.391 15.5591 152.44 15.6992 152.54 15.8218C152.645 15.9443 152.843 16.0815 153.135 16.2332C153.432 16.3792 153.867 16.5688 154.439 16.8023C154.994 17.0299 155.475 17.2692 155.884 17.5202C156.292 17.7653 156.608 18.0717 156.829 18.4394C157.051 18.8013 157.162 19.2711 157.162 19.849ZM167.361 22.7556H170.811V9.95607H168.368V16.0144L168.403 17.1875L168.456 18.3607C168.473 18.7517 168.488 19.1457 168.499 19.5425H168.438L162.879 9.95607H159.456V22.7556H161.881V16.7323C161.863 16.3237 161.846 15.9181 161.828 15.5154L161.776 14.2897C161.758 13.8811 161.738 13.4755 161.715 13.0728H161.793L167.361 22.7556ZM177.841 12.7663C179.154 12.7663 180.161 13.0523 180.861 13.6243C181.562 14.1963 181.912 15.0659 181.912 16.2332V22.7556H180.047L179.53 21.4248H179.46C179.18 21.775 178.894 22.061 178.602 22.2828C178.311 22.5046 177.975 22.668 177.596 22.7731C177.216 22.8781 176.755 22.9306 176.212 22.9306C175.635 22.9306 175.115 22.8198 174.654 22.598C174.199 22.3762 173.84 22.0377 173.577 21.5824C173.315 21.1213 173.183 20.5377 173.183 19.8315C173.183 18.7926 173.548 18.028 174.278 17.5377C175.007 17.0416 176.102 16.7673 177.561 16.7148L179.259 16.6622V16.2332C179.259 15.7196 179.125 15.3432 178.856 15.1039C178.588 14.8646 178.214 14.7449 177.736 14.7449C177.263 14.7449 176.799 14.812 176.344 14.9463C175.889 15.0805 175.433 15.2498 174.978 15.4541L174.094 13.6506C174.613 13.3763 175.194 13.1603 175.836 13.0027C176.484 12.8451 177.152 12.7663 177.841 12.7663ZM179.259 18.2206L178.226 18.2556C177.362 18.2789 176.761 18.4336 176.423 18.7196C176.09 19.0056 175.924 19.382 175.924 19.849C175.924 20.2575 176.043 20.5493 176.282 20.7244C176.522 20.8937 176.834 20.9783 177.219 20.9783C177.791 20.9783 178.273 20.8091 178.664 20.4706C179.061 20.132 179.259 19.6505 179.259 19.026V18.2206ZM186.062 12.9677H183.269L186.998 22.7556H189.739L193.468 12.9677H190.675L188.793 18.5445C188.682 18.8713 188.592 19.2099 188.522 19.5601C188.457 19.9102 188.417 20.24 188.399 20.5493H188.329C188.306 20.2634 188.262 19.9394 188.198 19.5776C188.139 19.2157 188.058 18.8713 187.953 18.5445L186.062 12.9677ZM200.087 26.345C200.81 26.8236 201.855 27.0629 203.221 27.0629C205.007 27.0629 206.376 26.7477 207.327 26.1174C208.284 25.487 208.763 24.5999 208.763 23.4559C208.763 22.5629 208.48 21.8859 207.913 21.4248C207.353 20.9637 206.536 20.7332 205.462 20.7332H203.799C203.472 20.7332 203.198 20.7128 202.976 20.6719C202.76 20.6252 202.596 20.561 202.486 20.4793C202.38 20.3918 202.328 20.2838 202.328 20.1554C202.328 20.027 202.363 19.9044 202.433 19.7877C202.503 19.6709 202.605 19.5601 202.739 19.455C203.014 19.4842 203.306 19.5075 203.615 19.525C204.916 19.525 205.932 19.2332 206.662 18.6496C207.397 18.0601 207.765 17.24 207.765 16.1895C207.765 15.9152 207.73 15.6554 207.66 15.4103C207.59 15.1652 207.484 14.9346 207.344 14.7187L208.877 14.3247V12.9677H205.462C205.392 12.9502 205.255 12.9269 205.051 12.8977C204.852 12.8685 204.633 12.8422 204.394 12.8189C204.155 12.7955 203.945 12.7839 203.764 12.7839C202.906 12.7839 202.176 12.9152 201.575 13.1778C200.98 13.4405 200.524 13.8228 200.209 14.3247C199.9 14.8208 199.745 15.4249 199.745 16.1369C199.745 16.8023 199.894 17.3801 200.192 17.8704C200.495 18.3607 200.904 18.7167 201.417 18.9385C201.009 19.1778 200.697 19.4229 200.481 19.6739C200.265 19.919 200.157 20.2283 200.157 20.6019C200.157 20.8995 200.259 21.1826 200.463 21.4511C200.667 21.7137 200.907 21.9034 201.181 22.0201C200.469 22.1894 199.929 22.4725 199.561 22.8694C199.194 23.2662 199.01 23.7594 199.01 24.3489C199.01 25.2069 199.369 25.8722 200.087 26.345ZM204.972 25.1369C204.517 25.2594 203.971 25.3207 203.335 25.3207C202.699 25.3207 202.202 25.2156 201.846 25.0055C201.496 24.7954 201.321 24.5065 201.321 24.1388C201.321 23.8878 201.397 23.666 201.549 23.4734C201.701 23.2867 201.905 23.1408 202.162 23.0357C202.424 22.9306 202.719 22.8781 203.046 22.8781H204.429C204.878 22.8781 205.246 22.9073 205.532 22.9657C205.824 23.024 206.04 23.1233 206.18 23.2633C206.326 23.4092 206.399 23.6048 206.399 23.8499C206.399 24.1534 206.276 24.4131 206.031 24.6291C205.786 24.8509 205.433 25.0201 204.972 25.1369ZM204.867 17.4326C204.633 17.742 204.266 17.8966 203.764 17.8966C203.268 17.8966 202.897 17.742 202.652 17.4326C202.413 17.1233 202.293 16.7031 202.293 16.172C202.293 15.5825 202.415 15.1418 202.661 14.85C202.906 14.5523 203.273 14.4035 203.764 14.4035C204.248 14.4035 204.61 14.5523 204.849 14.85C205.094 15.1418 205.217 15.5825 205.217 16.172C205.217 16.7031 205.1 17.1233 204.867 17.4326ZM214.506 12.7663C215.819 12.7663 216.826 13.0523 217.526 13.6243C218.227 14.1963 218.577 15.0659 218.577 16.2332V22.7556H216.712L216.195 21.4248H216.125C215.845 21.775 215.559 22.061 215.267 22.2828C214.976 22.5046 214.64 22.668 214.261 22.7731C213.881 22.8781 213.42 22.9306 212.877 22.9306C212.3 22.9306 211.78 22.8198 211.319 22.598C210.864 22.3762 210.505 22.0377 210.242 21.5824C209.98 21.1213 209.848 20.5377 209.848 19.8315C209.848 18.7926 210.213 18.028 210.943 17.5377C211.672 17.0416 212.767 16.7673 214.226 16.7148L215.924 16.6622V16.2332C215.924 15.7196 215.79 15.3432 215.521 15.1039C215.253 14.8646 214.879 14.7449 214.401 14.7449C213.928 14.7449 213.464 14.812 213.009 14.9463C212.553 15.0805 212.098 15.2498 211.643 15.4541L210.759 13.6506C211.278 13.3763 211.859 13.1603 212.501 13.0027C213.149 12.8451 213.817 12.7663 214.506 12.7663ZM215.924 18.2206L214.891 18.2556C214.027 18.2789 213.426 18.4336 213.088 18.7196C212.755 19.0056 212.589 19.382 212.589 19.849C212.589 20.2575 212.708 20.5493 212.947 20.7244C213.187 20.8937 213.499 20.9783 213.884 20.9783C214.456 20.9783 214.938 20.8091 215.329 20.4706C215.726 20.132 215.924 19.6505 215.924 19.026V18.2206ZM226.307 20.7157C226.033 20.7741 225.75 20.8032 225.458 20.8032C225.108 20.8032 224.825 20.7128 224.609 20.5318C224.399 20.3451 224.294 20.0649 224.294 19.6914V14.9726H227.034V12.9677H224.294V10.8841H222.586L221.816 12.9502L220.345 13.8432V14.9726H221.623V19.6914C221.623 20.5318 221.755 21.1884 222.017 21.6612C222.286 22.1281 222.651 22.4579 223.112 22.6505C223.579 22.8373 224.104 22.9306 224.688 22.9306C225.19 22.9306 225.651 22.8869 226.071 22.7993C226.497 22.7176 226.853 22.6126 227.139 22.4842V20.4968C226.865 20.5844 226.587 20.6573 226.307 20.7157ZM231.797 22.7556H229.126V12.9677H231.797V22.7556ZM230.466 9.13312C230.863 9.13312 231.204 9.2265 231.49 9.41327C231.776 9.5942 231.919 9.93564 231.919 10.4376C231.919 10.9337 231.776 11.278 231.49 11.4706C231.204 11.6574 230.863 11.7508 230.466 11.7508C230.063 11.7508 229.719 11.6574 229.433 11.4706C229.153 11.278 229.012 10.9337 229.012 10.4376C229.012 9.93564 229.153 9.5942 229.433 9.41327C229.719 9.2265 230.063 9.13312 230.466 9.13312ZM243.169 20.0153C243.391 19.385 243.502 18.6612 243.502 17.8441C243.502 16.7585 243.297 15.8393 242.889 15.0864C242.486 14.3335 241.929 13.7615 241.217 13.3704C240.51 12.9794 239.699 12.7839 238.783 12.7839C237.796 12.7839 236.947 12.9794 236.235 13.3704C235.523 13.7615 234.974 14.3335 234.589 15.0864C234.204 15.8393 234.011 16.7585 234.011 17.8441C234.011 18.6612 234.125 19.385 234.353 20.0153C234.586 20.6456 234.913 21.1797 235.333 21.6174C235.76 22.0493 236.259 22.3762 236.831 22.598C237.408 22.8198 238.042 22.9306 238.73 22.9306C239.466 22.9306 240.125 22.8198 240.709 22.598C241.298 22.3762 241.8 22.0493 242.215 21.6174C242.635 21.1797 242.953 20.6456 243.169 20.0153ZM236.944 19.4638C236.804 19.026 236.734 18.4861 236.734 17.8441C236.734 16.8753 236.892 16.1486 237.207 15.6642C237.528 15.1797 238.042 14.9375 238.748 14.9375C239.226 14.9375 239.615 15.0455 239.912 15.2615C240.21 15.4774 240.426 15.8013 240.56 16.2332C240.7 16.6593 240.77 17.1963 240.77 17.8441C240.77 18.4861 240.7 19.026 240.56 19.4638C240.426 19.9015 240.21 20.2313 239.912 20.453C239.62 20.6748 239.238 20.7857 238.765 20.7857C238.287 20.7857 237.899 20.6748 237.601 20.453C237.303 20.2313 237.084 19.9015 236.944 19.4638ZM251.267 12.7839C252.312 12.7839 253.152 13.0698 253.788 13.6418C254.425 14.208 254.743 15.1185 254.743 16.3733V22.7556H252.073V17.0387C252.073 16.3383 251.944 15.8101 251.687 15.4541C251.436 15.098 251.04 14.92 250.497 14.92C249.68 14.92 249.122 15.1973 248.825 15.7517C248.527 16.3062 248.378 17.1058 248.378 18.1505V22.7556H245.708V12.9677H247.748L248.107 14.2196H248.255C248.466 13.8811 248.725 13.6068 249.035 13.3967C249.35 13.1866 249.697 13.0319 250.076 12.9327C250.462 12.8335 250.859 12.7839 251.267 12.7839ZM36.1435 25.6C37.6252 25.6 39.0463 24.9836 40.0941 23.8863L59.4765 3.58822C61.6703 1.29072 64.6458 0 67.7484 0C74.2092 0 79.4467 5.48495 79.4467 12.251C79.4467 15.5002 78.2142 18.6162 76.0203 20.9137L68.8605 28.4117C66.6667 30.7092 63.6912 32 60.5886 32C56.4419 32 52.7992 29.7406 50.7216 26.3331L55.2756 21.5639C56.0048 23.9069 58.1079 25.6 60.5886 25.6C62.0704 25.6 63.4915 24.9836 64.5392 23.8863L71.699 16.3883C72.7468 15.291 73.3354 13.8028 73.3354 12.251C73.3354 9.01956 70.8341 6.4 67.7484 6.4C66.2666 6.4 64.8455 7.01644 63.7977 8.11371L44.4154 28.4117C42.2215 30.7092 39.2461 32 36.1435 32C31.997 32 28.3543 29.7407 26.2767 26.3335L30.8306 21.5645C31.56 23.9072 33.663 25.6 36.1435 25.6Z" fill="#1F2247"/>
</svg>
